# xmcd
#
# Track frame offsets: 
#        150
#        15185
#        45840
#        61130
#        92622
#        111992
#        127130
#        155695
#        189080
#        215500
#        241505
#
# Disc length: 3384 seconds
#
# Revision: 3
# Processed by: cddbd v1.5.2PL0 Copyright (c) Steve Scherf et al.
# Submitted via: ExactAudioCopy v1.3
#
DISCID=7f0d360b
DTITLE=Stan Getz - More Getz for Lovers
DYEAR=2006
DGENRE=Jazz
TTITLE0=Thanks for the Memory
TTITLE1=It's the Talk of the Town
TTITLE2=Insensatez (How Insensitive)
TTITLE3=A Nightingale Sang in Berkeley Square
TTITLE4=The Folks Who Live on the Hill
TTITLE5=A Handful of Stars
TTITLE6=Summer Wishes, Winter Dreams
TTITLE7=Soul Eyes
TTITLE8=Desafinado
TTITLE9=When the Sun Comes Out
TTITLE10=Reflections
EXTD=YEAR: 2006
EXTT0=
EXTT1=
EXTT2=
EXTT3=
EXTT4=
EXTT5=
EXTT6=
EXTT7=
EXTT8=
EXTT9=
EXTT10=
PLAYORDER=
